{"title":"Despicable.Me.2010.CAM.XVID.RAL","uid":5693911,"size":733402238,"categoryP":"video","categoryS":"movies","magnet":"?xt=urn:btih:a36bd72f894600db9f8dcfedbd33e9bfdd83c189&amp;dn=Despicable.Me.2010.CAM.XVID.RAL&amp;tr=udp%3A%2F%2Ftracker.openbittorrent.com%3A80&amp;tr=udp%3A%2F%2Fopen.demonii.com%3A1337&amp;tr=udp%3A%2F%2Ftracker.coppersurfer.tk%3A6969&amp;tr=udp%3A%2F%2Fexodus.desync.com%3A6969","seeders":1,"leechers":0,"uploader":"hiest","files":7,"time":1279199892,"description":"Genre:Animation | Comedy | Family\nLanguage:English\nIMDb:http://www.imdb.com/title/tt1323594/\nSource:TA/Slugger Thanks\n\nGeneral\nComplete name:Despicable.Me.2010.CAM.XVID.RAL\nFormat : AVI\nFormat/Info : Audio Video Interleave\nFile size : 698 MiB\nDuration : 1h 18mn\nOverall bit rate : 1 242 Kbps\nWriting application : VirtualDubMod 1.5.10.2 (build 2540/release)\nWriting library : VirtualDub build 32817/release\nVideo #0\nID : 0\nFormat : MPEG-4 Visual\nFormat profile : AdvancedSimple@L5\nFormat settings, BVOP : Yes\nFormat settings, QPel : No\nFormat settings, GMC : No warppoints\nFormat settings, Matrix : Default (MPEG)\nCodec ID : XVID\nCodec ID/Hint : XviD\nDuration : 1h 18mn\nBit rate : 1 102 Kbps\nWidth : 608 pixels\nHeight : 320 pixels\nDisplay aspect ratio : 1.900\nFrame rate : 29.970 fps\nResolution : 24 bits\nColorimetry : 4:2:0\nScan type : Progressive\nBits/(Pixel*Frame) : 0.189\nStream size : 620 MiB (89%)\nWriting library : XviD 1.1.2 (UTC 2006-11-01)\nAudio #1\nID : 1\nFormat : MPEG Audio\nFormat version : Version 1\nFormat profile : Layer 3\nCodec ID : 55\nCodec ID/Hint : MP3\nDuration : 1h 18mn\nBit rate mode : Constant\nBit rate : 128 Kbps\nChannel(s) : 2 channels\nSampling rate : 44.1 KHz\nResolution : 16 bits\nStream size : 72.0 MiB (10%)\nAlignment : Split accross interleaves\nInterleave, duration : 33 ms (1.00 video frame)\nInterleave, preload duration : 500 ms\nWriting library : LAME3.97AM.\n\nPlot:\n\nA trio of orphan girls cause the normally deplorable Gru to rethink his plan to steal the moon\n\n","torrent":{"xt":"urn:btih:a36bd72f894600db9f8dcfedbd33e9bfdd83c189","amp;dn":"Despicable.Me.2010.CAM.XVID.RAL","amp;tr":["udp%3A%2F%2Ftracker.openbittorrent.com%3A80","udp%3A%2F%2Fopen.demonii.com%3A1337","udp%3A%2F%2Ftracker.coppersurfer.tk%3A6969","udp%3A%2F%2Fexodus.desync.com%3A6969"],"infoHash":"a36bd72f894600db9f8dcfedbd33e9bfdd83c189","infoHashBuffer":{"type":"Buffer","data":[163,107,215,47,137,70,0,219,159,141,207,237,189,51,233,191,221,131,193,137]},"announce":[],"urlList":[]}}